<svg width="20" height="20" viewBox="0 0 20 20" fill="none" xmlns="http://www.w3.org/2000/svg">
<path d="M9.9987 9.99984C12.2999 9.99984 14.1654 8.13436 14.1654 5.83317C14.1654 3.53198 12.2999 1.6665 9.9987 1.6665C7.69751 1.6665 5.83203 3.53198 5.83203 5.83317C5.83203 8.13436 7.69751 9.99984 9.9987 9.99984Z" stroke="#636363" stroke-width="1.5" stroke-linecap="round" stroke-linejoin="round"/>
<path d="M16.0066 13.1167L13.0566 16.0667C12.9399 16.1834 12.8316 16.4 12.8066 16.5584L12.6482 17.6833C12.5899 18.0917 12.8732 18.375 13.2816 18.3167L14.4066 18.1583C14.5649 18.1333 14.7899 18.025 14.8982 17.9084L17.8482 14.9584C18.3566 14.45 18.5982 13.8583 17.8482 13.1083C17.1066 12.3667 16.5149 12.6083 16.0066 13.1167Z" stroke="#636363" stroke-width="1.5" stroke-miterlimit="10" stroke-linecap="round" stroke-linejoin="round"/>
<path d="M15.582 13.5415C15.832 14.4415 16.532 15.1415 17.432 15.3915" stroke="#636363" stroke-width="1.5" stroke-miterlimit="10" stroke-linecap="round" stroke-linejoin="round"/>
<path d="M2.83984 18.3333C2.83984 15.1083 6.0482 12.5 9.9982 12.5C10.8649 12.5 11.6982 12.625 12.4732 12.8583" stroke="#636363" stroke-width="1.5" stroke-linecap="round" stroke-linejoin="round"/>
</svg>
