<svg width="20" height="20" viewBox="0 0 20 20" fill="none" xmlns="http://www.w3.org/2000/svg">
<path d="M15.757 12.2437C15.757 13.3187 16.6404 14.1937 17.7154 14.1937C17.7154 17.3187 16.932 18.1021 13.807 18.1021H5.99036C2.86536 18.1021 2.08203 17.3187 2.08203 14.1937V13.8104C3.15703 13.8104 4.04036 12.9271 4.04036 11.8521C4.04036 10.7771 3.15703 9.89372 2.08203 9.89372V9.51038C2.09036 6.38538 2.86536 5.60205 5.99036 5.60205H13.7987C16.9237 5.60205 17.707 6.38538 17.707 9.51038V10.2937C16.632 10.2937 15.757 11.1604 15.757 12.2437Z" stroke="#1127E3" stroke-width="1.5" stroke-linecap="round" stroke-linejoin="round"/>
<path d="M13.5086 5.60192H5.93359L8.37526 3.16025C10.3669 1.16859 11.3669 1.16859 13.3586 3.16025L13.8586 3.66025C13.3336 4.18525 13.2086 4.96025 13.5086 5.60192Z" stroke="#1127E3" stroke-width="1.5" stroke-linecap="round" stroke-linejoin="round"/>
<path d="M8.23438 5.60205L8.23438 18.1021" stroke="#1127E3" stroke-width="1.5" stroke-linecap="round" stroke-linejoin="round" stroke-dasharray="5 5"/>
</svg>
